<svg width="32" height="32" viewBox="0 0 32 32" fill="none" xmlns="http://www.w3.org/2000/svg">
<path d="M27.3137 27.3137C21.0653 33.5621 10.9347 33.5621 4.68629 27.3137C-1.5621 21.0653 -1.5621 10.9347 4.68629 4.68629C10.9347 -1.5621 21.0653 -1.5621 27.3137 4.68629C33.5621 10.9347 33.5621 21.0653 27.3137 27.3137Z" fill="#2979FF"/>
<path d="M9.77778 8C8.80511 8 8 8.80511 8 9.77778V22.2222C8 23.1949 8.80511 24 9.77778 24H22.2222C23.1949 24 24 23.1949 24 22.2222V11.5556L20.4444 8H9.77778ZM9.77778 9.77778H19.7083L22.2222 12.2917V22.2222H9.77778V9.77778ZM11.5556 11.5556V14.2222H18.6667V11.5556H11.5556ZM15.5556 16C14.9662 16 14.401 16.2341 13.9842 16.6509C13.5675 17.0676 13.3333 17.6329 13.3333 18.2222C13.3333 18.8116 13.5675 19.3768 13.9842 19.7936C14.401 20.2103 14.9662 20.4444 15.5556 20.4444C16.1449 20.4444 16.7102 20.2103 17.1269 19.7936C17.5437 19.3768 17.7778 18.8116 17.7778 18.2222C17.7778 17.6329 17.5437 17.0676 17.1269 16.6509C16.7102 16.2341 16.1449 16 15.5556 16Z" fill="white"/>
</svg>
