<svg width="15" height="16" viewBox="0 0 15 16" fill="none" xmlns="http://www.w3.org/2000/svg">
<path d="M3.33333 0C2.42145 0 1.66667 0.724596 1.66667 1.6V5.6C0.745833 5.6 0 6.316 0 7.2V11.2C0 12.084 0.745833 12.8 1.66667 12.8V14.4C1.66667 15.2754 2.42145 16 3.33333 16H13.3333C14.2452 16 15 15.2754 15 14.4V4L10.8333 0H3.33333ZM3.33333 1.6H10V4.8H13.3333V5.6H3.33333V1.6ZM1.68783 7.2H2.72786L3.33171 8.57344L3.93717 7.2H4.97559L3.91927 9.18281L5 11.2H3.94857L3.33171 9.80156L2.7181 11.2H1.66667L2.74577 9.18281L1.68783 7.2ZM5.83333 7.2H6.66667V10.4H8.33333V11.2H5.83333V7.2ZM10.4085 7.2C11.5944 7.2328 11.6667 8.22633 11.6667 8.40312H10.8594C10.8594 8.32073 10.8739 7.84531 10.3939 7.84531C10.248 7.84531 9.92129 7.90735 9.94629 8.29375C9.97046 8.64815 10.4561 8.81553 10.5452 8.85313C10.7319 8.91873 11.6559 9.31391 11.6634 10.1203C11.6651 10.2915 11.619 11.188 10.4248 11.2C9.12564 11.2136 9.03809 10.1404 9.03809 9.91875H9.85026C9.85026 10.0364 9.86064 10.6049 10.4248 10.5609C10.764 10.5337 10.8379 10.2994 10.8496 10.125C10.8688 9.8314 10.5769 9.6549 10.2686 9.5125C9.83522 9.3125 9.14987 9.0667 9.13737 8.2875C9.12654 7.5859 9.66353 7.18 10.4085 7.2ZM3.33333 12.8H13.3333V14.4H3.33333V12.8Z" fill="#219653"/>
</svg>
